<svg xmlns="http://www.w3.org/2000/svg" width="81px" height="81px"
     viewBox="0 0 8.62 8.62">
 <defs>
  <style type="text/css">
   <![CDATA[
    .str0 {stroke:#2B2A29;stroke-width:0.31;stroke-miterlimit:22.9256}
    .str1 {stroke:#2B2A29;stroke-width:0.12;stroke-miterlimit:22.9256}
    .fil0 {fill:none}
    .fil1 {fill:#FFFFFF}
   ]]>
  </style>
 </defs>
    <g>

        <ellipse class="fil0 str0" cx="4.29" cy="5.22" rx="0.07" ry="0.11"/>
        <rect class="fil0 str0" x="0.15" y="0.15" width="8.31" height="8.31"/>
        <path class="fil0 str0" d="M7.34 8.39c0,-0.75 -0.11,-1.09 -0.09,-1.29 0.02,-0.22 -0.19,-1.27 -0.39,-1.7 -0.19,-0.42 -0.48,-0.71 -0.63,-1.27 -0.16,-0.57 0.08,-1.17 0.25,-1.59 0.16,-0.42 0.18,-1.39 0.17,-2.34l-5.29 0c0.01,0.26 0.04,1.51 0.33,2.08 0.29,0.56 0.44,1.38 0.44,1.38 0,0 0.17,0.77 -0.25,1.43 -0.43,0.65 -0.5,1.11 -0.55,1.25 -0.06,0.14 -0.26,1.18 -0.18,2.05l2.49 0c0.15,-0.3 0.71,-1.33 0.89,0l2.81 0z"/>
        <path class="fil1 str1" d="M7.34 8.39c0,-0.75 -0.11,-1.09 -0.09,-1.29 0.02,-0.22 -0.19,-1.27 -0.39,-1.7 -0.19,-0.42 -0.48,-0.71 -0.63,-1.27 -0.16,-0.57 0.08,-1.17 0.25,-1.59 0.16,-0.42 0.18,-1.39 0.17,-2.34l-5.29 0c0.01,0.26 0.04,1.51 0.33,2.08 0.29,0.56 0.44,1.38 0.44,1.38 0,0 0.17,0.77 -0.25,1.43 -0.43,0.65 -0.5,1.11 -0.55,1.25 -0.06,0.14 -0.26,1.18 -0.18,2.05l2.49 0c0.15,-0.3 0.71,-1.33 0.89,0l2.81 0zm-3.05 -3.28c0.04,0 0.07,0.05 0.07,0.11 0,0.06 -0.03,0.11 -0.07,0.11 -0.04,0 -0.06,-0.05 -0.06,-0.11 0,-0.06 0.02,-0.11 0.06,-0.11z"/>
 </g>
</svg>
